#Comment line ignore any data following # character 
#Hierarchical Translation and Rotation (.htr) file 
[Header]	
#Header keywords are followed by a single value 
FileType HTR		#Single word string
DataType HTRS		#Translation followed by rotation and scale data
FileVersion 1		#integer
NumSegments 84		#integer
NumFrames 2		#integer
DataFrameRate 30		#integer, data frame rate in this file
EulerRotationOrder ZYX
CalibrationUnits mm
RotationUnits Degrees
GlobalAxisofGravity Y
BoneLengthAxis Y
ScaleFactor 1.00
[SegmentNames&Hierarchy]
#CHILD	PARENT
MASTER GLOBAL
root MASTER
chest root
L_mid_tent01 root
R_mid_tent01 root
spine01 root
Bip01_Neck chest
L_humerus chest
R_humerus chest
weapon_bone chest
Bip01_Head Bip01_Neck
eye_left_bone Bip01_Head
eye_right_bone Bip01_Head
L_forearm L_humerus
L_front_hand L_forearm
L_weapon_bone L_forearm
L_front_hand01_01 L_front_hand
L_front_hand02_01 L_front_hand
L_front_hand03_01 L_front_hand
L_front_hand01_02 L_front_hand01_01
L_front_hand02_02 L_front_hand02_01
L_front_hand03_02 L_front_hand03_01
R_forearm R_humerus
R_front_hand R_forearm
R_weapon_bone R_forearm
R_front_hand01_01 R_front_hand
R_front_hand02_01 R_front_hand
R_front_hand03_01 R_front_hand
R_front_hand01_02 R_front_hand01_01
R_front_hand02_02 R_front_hand02_01
R_front_hand03_02 R_front_hand03_01
null_rope01_connect L_mid_tent01
Rope1_Seg01 null_rope01_connect
Rope1_Seg02 Rope1_Seg01
Rope1_Seg03 Rope1_Seg02
Rope1_Seg04 Rope1_Seg03
Rope1_Seg05 Rope1_Seg04
Rope1_Seg06 Rope1_Seg05
Rope1_Seg07 Rope1_Seg06
Rope1_Seg09 Rope1_Seg07
L_mid_hand01 Rope1_Seg09
L_mid_hand02 Rope1_Seg09
L_mid_hand03 Rope1_Seg09
null_rope02_connect R_mid_tent01
Rope2_Seg01 null_rope02_connect
Rope2_Seg02 Rope2_Seg01
Rope2_Seg03 Rope2_Seg02
Rope2_Seg04 Rope2_Seg03
Rope2_Seg05 Rope2_Seg04
Rope2_Seg06 Rope2_Seg05
Rope2_Seg07 Rope2_Seg06
Rope2_Seg09 Rope2_Seg07
R_mid_hand01 Rope2_Seg09
R_mid_hand02 Rope2_Seg09
R_mid_hand03 Rope2_Seg09
spine02 spine01
spine03 spine02
pelvis spine03
null_rope03_connect pelvis
null_rope04_connect pelvis
Rope3_Seg01 null_rope03_connect
Rope3_Seg02 Rope3_Seg01
Rope3_Seg03 Rope3_Seg02
Rope3_Seg04 Rope3_Seg03
Rope3_Seg05 Rope3_Seg04
Rope3_Seg06 Rope3_Seg05
Rope3_Seg07 Rope3_Seg06
Rope3_Seg08 Rope3_Seg07
Rope3_Seg09 Rope3_Seg08
R_rear_hand01 Rope3_Seg09
R_rear_hand02 Rope3_Seg09
R_rear_hand03 Rope3_Seg09
Rope4_Seg01 null_rope04_connect
Rope4_Seg02 Rope4_Seg01
Rope4_Seg03 Rope4_Seg02
Rope4_Seg04 Rope4_Seg03
Rope4_Seg05 Rope4_Seg04
Rope4_Seg06 Rope4_Seg05
Rope4_Seg07 Rope4_Seg06
Rope4_Seg08 Rope4_Seg07
Rope4_Seg09 Rope4_Seg08
L_rear_hand01 Rope4_Seg09
L_rear_hand02 Rope4_Seg09
L_rear_hand03 Rope4_Seg09
[BasePosition]
#SegmentName Tx, Ty, Tz, Rx, Ry, Rz, BoneLength
MASTER 0.000000 0.000000 0.000000 -90.000000 0.000000 0.000000 10.000000 
root 0.000000 0.000000 0.000000 0.000000 0.000000 0.000000 10.000000 
chest 0.000000 0.000000 0.000000 0.000000 0.000000 0.000000 10.000000 
L_mid_tent01 0.000000 0.000000 0.000000 0.000000 0.000000 0.000000 10.000000 
R_mid_tent01 0.000000 0.000000 0.000000 0.000000 0.000000 0.000000 10.000000 
spine01 0.000000 0.000000 0.000000 0.000000 0.000000 0.000000 10.000000 
Bip01_Neck 0.000000 0.000000 0.000000 0.000000 0.000000 0.000000 10.000000 
L_humerus 0.000000 0.000000 0.000000 0.000000 0.000000 0.000000 10.000000 
R_humerus 0.000000 0.000000 0.000000 0.000000 0.000000 0.000000 10.000000 
weapon_bone 0.000000 0.000000 0.000000 0.000000 0.000000 0.000000 10.000000 
Bip01_Head 0.000000 0.000000 0.000000 0.000000 0.000000 0.000000 10.000000 
eye_left_bone 0.000000 0.000000 0.000000 0.000000 0.000000 0.000000 10.000000 
eye_right_bone 0.000000 0.000000 0.000000 0.000000 0.000000 0.000000 10.000000 
L_forearm 0.000000 0.000000 0.000000 0.000000 0.000000 0.000000 10.000000 
L_front_hand 0.000000 0.000000 0.000000 0.000000 0.000000 0.000000 10.000000 
L_weapon_bone 0.000000 0.000000 0.000000 0.000000 0.000000 0.000000 10.000000 
L_front_hand01_01 0.000000 0.000000 0.000000 0.000000 0.000000 0.000000 10.000000 
L_front_hand02_01 0.000000 0.000000 0.000000 0.000000 0.000000 0.000000 10.000000 
L_front_hand03_01 0.000000 0.000000 0.000000 0.000000 0.000000 0.000000 10.000000 
L_front_hand01_02 0.000000 0.000000 0.000000 0.000000 0.000000 0.000000 10.000000 
L_front_hand02_02 0.000000 0.000000 0.000000 0.000000 0.000000 0.000000 10.000000 
L_front_hand03_02 0.000000 0.000000 0.000000 0.000000 0.000000 0.000000 10.000000 
R_forearm 0.000000 0.000000 0.000000 0.000000 0.000000 0.000000 10.000000 
R_front_hand 0.000000 0.000000 0.000000 0.000000 0.000000 0.000000 10.000000 
R_weapon_bone 0.000000 0.000000 0.000000 0.000000 0.000000 0.000000 10.000000 
R_front_hand01_01 0.000000 0.000000 0.000000 0.000000 0.000000 0.000000 10.000000 
R_front_hand02_01 0.000000 0.000000 0.000000 0.000000 0.000000 0.000000 10.000000 
R_front_hand03_01 0.000000 0.000000 0.000000 0.000000 0.000000 0.000000 10.000000 
R_front_hand01_02 0.000000 0.000000 0.000000 0.000000 0.000000 0.000000 10.000000 
R_front_hand02_02 0.000000 0.000000 0.000000 0.000000 0.000000 0.000000 10.000000 
R_front_hand03_02 0.000000 0.000000 0.000000 0.000000 0.000000 0.000000 10.000000 
null_rope01_connect 0.000000 0.000000 0.000000 0.000000 0.000000 0.000000 10.000000 
Rope1_Seg01 0.000000 0.000000 0.000000 0.000000 0.000000 0.000000 10.000000 
Rope1_Seg02 0.000000 0.000000 0.000000 0.000000 0.000000 0.000000 10.000000 
Rope1_Seg03 0.000000 0.000000 0.000000 0.000000 0.000000 0.000000 10.000000 
Rope1_Seg04 0.000000 0.000000 0.000000 0.000000 0.000000 0.000000 10.000000 
Rope1_Seg05 0.000000 0.000000 0.000000 0.000000 0.000000 0.000000 10.000000 
Rope1_Seg06 0.000000 0.000000 0.000000 0.000000 0.000000 0.000000 10.000000 
Rope1_Seg07 0.000000 0.000000 0.000000 0.000000 0.000000 0.000000 10.000000 
Rope1_Seg09 0.000000 0.000000 0.000000 0.000000 0.000000 0.000000 10.000000 
L_mid_hand01 0.000000 0.000000 0.000000 0.000000 0.000000 0.000000 10.000000 
L_mid_hand02 0.000000 0.000000 0.000000 0.000000 0.000000 0.000000 10.000000 
L_mid_hand03 0.000000 0.000000 0.000000 0.000000 0.000000 0.000000 10.000000 
null_rope02_connect 0.000000 0.000000 0.000000 0.000000 0.000000 0.000000 10.000000 
Rope2_Seg01 0.000000 0.000000 0.000000 0.000000 0.000000 0.000000 10.000000 
Rope2_Seg02 0.000000 0.000000 0.000000 0.000000 0.000000 0.000000 10.000000 
Rope2_Seg03 0.000000 0.000000 0.000000 0.000000 0.000000 0.000000 10.000000 
Rope2_Seg04 0.000000 0.000000 0.000000 0.000000 0.000000 0.000000 10.000000 
Rope2_Seg05 0.000000 0.000000 0.000000 0.000000 0.000000 0.000000 10.000000 
Rope2_Seg06 0.000000 0.000000 0.000000 0.000000 0.000000 0.000000 10.000000 
Rope2_Seg07 0.000000 0.000000 0.000000 0.000000 0.000000 0.000000 10.000000 
Rope2_Seg09 0.000000 0.000000 0.000000 0.000000 0.000000 0.000000 10.000000 
R_mid_hand01 0.000000 0.000000 0.000000 0.000000 0.000000 0.000000 10.000000 
R_mid_hand02 0.000000 0.000000 0.000000 0.000000 0.000000 0.000000 10.000000 
R_mid_hand03 0.000000 0.000000 0.000000 0.000000 0.000000 0.000000 10.000000 
spine02 0.000000 0.000000 0.000000 0.000000 0.000000 0.000000 10.000000 
spine03 0.000000 0.000000 0.000000 0.000000 0.000000 0.000000 10.000000 
pelvis 0.000000 0.000000 0.000000 0.000000 0.000000 0.000000 10.000000 
null_rope03_connect 0.000000 0.000000 0.000000 0.000000 0.000000 0.000000 10.000000 
null_rope04_connect 0.000000 0.000000 0.000000 0.000000 0.000000 0.000000 10.000000 
Rope3_Seg01 0.000000 0.000000 0.000000 0.000000 0.000000 0.000000 10.000000 
Rope3_Seg02 0.000000 0.000000 0.000000 0.000000 0.000000 0.000000 10.000000 
Rope3_Seg03 0.000000 0.000000 0.000000 0.000000 0.000000 0.000000 10.000000 
Rope3_Seg04 0.000000 0.000000 0.000000 0.000000 0.000000 0.000000 10.000000 
Rope3_Seg05 0.000000 0.000000 0.000000 0.000000 0.000000 0.000000 10.000000 
Rope3_Seg06 0.000000 0.000000 0.000000 0.000000 0.000000 0.000000 10.000000 
Rope3_Seg07 0.000000 0.000000 0.000000 0.000000 0.000000 0.000000 10.000000 
Rope3_Seg08 0.000000 0.000000 0.000000 0.000000 0.000000 0.000000 10.000000 
Rope3_Seg09 0.000000 0.000000 0.000000 0.000000 0.000000 0.000000 10.000000 
R_rear_hand01 0.000000 0.000000 0.000000 0.000000 0.000000 0.000000 10.000000 
R_rear_hand02 0.000000 0.000000 0.000000 0.000000 0.000000 0.000000 10.000000 
R_rear_hand03 0.000000 0.000000 0.000000 0.000000 0.000000 0.000000 10.000000 
Rope4_Seg01 0.000000 0.000000 0.000000 0.000000 0.000000 0.000000 10.000000 
Rope4_Seg02 0.000000 0.000000 0.000000 0.000000 0.000000 0.000000 10.000000 
Rope4_Seg03 0.000000 0.000000 0.000000 0.000000 0.000000 0.000000 10.000000 
Rope4_Seg04 0.000000 0.000000 0.000000 0.000000 0.000000 0.000000 10.000000 
Rope4_Seg05 0.000000 0.000000 0.000000 0.000000 0.000000 0.000000 10.000000 
Rope4_Seg06 0.000000 0.000000 0.000000 0.000000 0.000000 0.000000 10.000000 
Rope4_Seg07 0.000000 0.000000 0.000000 0.000000 0.000000 0.000000 10.000000 
Rope4_Seg08 0.000000 0.000000 0.000000 0.000000 0.000000 0.000000 10.000000 
Rope4_Seg09 0.000000 0.000000 0.000000 0.000000 0.000000 0.000000 10.000000 
L_rear_hand01 0.000000 0.000000 0.000000 0.000000 0.000000 0.000000 10.000000 
L_rear_hand02 0.000000 0.000000 0.000000 0.000000 0.000000 0.000000 10.000000 
L_rear_hand03 0.000000 0.000000 0.000000 0.000000 0.000000 0.000000 10.000000 
#Beginning of Data. Separated by tabs
#Fr	Tx	Ty	Tz	Rx	Ry	Rz	SF
[MASTER]
42 0.000000 0.000000 0.000000 0.001660 0.001660 0.001660 0.000000
43 0.000000 0.000000 0.000000 0.001660 0.001660 0.001660 0.000000
[root]
42 -23.115313 -62.822132 919.886292 -88.142281 -7.483334 -93.225433 922.318665
43 -23.115313 -62.822132 908.239136 -87.982689 -7.784444 -93.214783 910.702637
[chest]
42 -84.512650 -34.090519 0.000000 -0.307809 -0.743092 156.385437 91.129311
43 -84.512650 -34.090519 0.000000 -0.307809 -0.743092 156.385437 91.129311
[L_mid_tent01]
42 23.228750 24.509907 -223.761200 -12.616519 17.539888 -9.902322 226.294907
43 23.228750 24.509907 -223.761200 -13.314734 18.892677 -11.793029 226.294907
[R_mid_tent01]
42 23.228794 24.509907 226.238495 -157.710297 -13.535353 -10.793012 228.744751
43 23.228794 24.509907 226.238495 -156.847397 -13.090485 -9.247871 228.744751
[spine01]
42 -0.361383 -0.195265 0.000000 0.001815 0.001488 11.320962 0.410763
43 -0.361383 -0.195265 0.000000 0.001815 0.001488 11.320962 0.410763
[Bip01_Neck]
42 165.484543 71.581718 0.000119 175.896118 1.177290 24.871183 180.302734
43 165.484543 71.581718 0.000119 175.896118 1.177290 24.871183 180.302734
[L_humerus]
42 -13.983130 -135.272980 -120.471481 -104.702057 -2.574140 -132.238052 181.680161
43 -13.983130 -135.272980 -120.471481 -104.702057 -2.574140 -132.238052 181.680161
[R_humerus]
42 -13.983309 -135.273102 125.287651 84.935959 -3.633308 -127.041824 184.909012
43 -13.983309 -135.273102 125.287651 84.935959 -3.633308 -127.041824 184.909012
[weapon_bone]
42 235.964890 -300.705902 0.000000 0.000000 -89.951546 -128.212341 382.234833
43 235.964890 -300.705902 0.000000 0.000000 -89.951546 -128.212341 382.234833
[Bip01_Head]
42 201.313843 211.516800 15.929727 4.245783 6.541234 -64.629242 292.438690
43 201.313843 211.516800 15.929725 5.091179 6.542893 -64.614418 292.438690
[eye_left_bone]
42 -24.626970 125.451866 -64.772606 0.000000 -90.000000 -99.840431 143.318359
43 -24.626970 125.451866 -64.772606 0.000000 -90.000000 -99.840431 143.318359
[eye_right_bone]
42 -24.626970 125.451866 64.327362 0.000000 -89.965736 80.156380 143.117676
43 -24.626970 125.451866 64.327362 0.000000 -89.965736 80.156380 143.117676
[L_forearm]
42 322.776093 0.000000 -0.000119 0.000357 -0.002320 -107.506004 322.776093
43 322.776093 0.000000 -0.000119 0.000357 -0.002320 -107.506004 322.776093
[L_front_hand]
42 241.149185 -0.042021 -3.300071 -177.752777 -0.319468 -73.408745 241.171753
43 241.149185 -0.042021 -3.300071 -177.752777 -0.319468 -73.408745 241.171753
[L_weapon_bone]
42 156.183838 0.000000 0.000000 0.000014 0.000007 0.000001 156.183838
43 156.183838 0.000000 0.000000 0.000014 0.000007 0.000001 156.183838
[L_front_hand01_01]
42 86.095154 20.947098 -0.655860 0.139491 -0.584553 24.181786 88.609184
43 86.095154 20.947098 -0.655860 0.139491 -0.584553 24.181786 88.609184
[L_front_hand02_01]
42 86.935165 -11.437475 24.513514 119.190460 -21.905655 -12.119137 91.046425
43 86.935165 -11.437475 24.513514 119.190460 -21.905655 -12.119137 91.046425
[L_front_hand03_01]
42 86.637497 -14.123976 -20.424902 -120.437630 20.554037 -14.327168 90.126129
43 86.637497 -14.123976 -20.424902 -120.437630 20.554031 -14.327168 90.126129
[L_front_hand01_02]
42 71.020905 -0.000179 0.000030 0.000334 -0.002323 -106.379684 71.020905
43 71.020905 -0.000179 0.000030 0.000334 -0.002323 -106.379684 71.020905
[L_front_hand02_02]
42 71.020927 -0.000119 0.000060 0.000334 -0.002323 -106.379684 71.020927
43 71.020927 -0.000119 0.000060 0.000334 -0.002323 -106.379684 71.020927
[L_front_hand03_02]
42 71.020905 -0.000060 0.000060 0.000334 -0.002323 -106.379684 71.020905
43 71.020905 -0.000060 0.000060 0.000334 -0.002323 -106.379684 71.020905
[R_forearm]
42 322.776428 -0.000060 0.000030 0.213176 0.008105 -93.737396 322.776428
43 322.776428 -0.000060 0.000030 0.213176 0.008105 -93.737396 322.776428
[R_front_hand]
42 238.847015 -0.006795 2.210259 -1.721140 -0.139412 -83.351707 238.857239
43 238.847015 -0.006795 2.210259 -1.721140 -0.139412 -83.351707 238.857239
[R_weapon_bone]
42 155.664093 0.002503 -0.000030 0.003487 0.001180 -90.988930 155.664078
43 155.664093 0.002503 -0.000030 0.003487 0.001180 -90.988930 155.664078
[R_front_hand01_01]
42 87.624611 14.231146 22.918642 -119.218056 -22.033409 12.303375 91.683487
43 87.624611 14.231146 22.918642 -119.218056 -22.033409 12.303375 91.683487
[R_front_hand02_01]
42 89.356956 14.367283 -19.491137 120.545532 20.947184 14.823009 92.579636
43 89.356956 14.367283 -19.491137 120.545532 20.947184 14.823009 92.579636
[R_front_hand03_01]
42 87.286232 -22.307278 -0.143439 -0.231628 -0.392922 -24.567768 90.091743
43 87.286232 -22.307278 -0.143439 -0.231628 -0.392922 -24.567768 90.091743
[R_front_hand01_02]
42 71.020905 0.000060 0.000119 0.002323 -0.000334 106.381714 71.020905
43 71.020905 0.000060 0.000119 0.002323 -0.000334 106.381714 71.020905
[R_front_hand02_02]
42 71.020844 -0.000030 -0.000119 0.002323 -0.000334 106.381714 71.020836
43 71.020844 -0.000030 -0.000119 0.002323 -0.000334 106.381714 71.020836
[R_front_hand03_02]
42 71.020905 0.000000 0.000030 0.002323 -0.000334 106.381714 71.020905
43 71.020905 0.000000 0.000030 0.002323 -0.000334 106.381714 71.020905
[null_rope01_connect]
42 328.732483 0.000000 -0.000238 -102.960892 -66.153496 -152.079086 328.732483
43 328.732483 0.000000 -0.000238 -100.661530 -64.639931 -152.492828 328.732483
[Rope1_Seg01]
42 0.000000 0.000000 0.000000 11.888072 -33.077808 -83.078545 0.000000
43 0.000000 0.000000 0.000000 14.745006 -35.916672 -85.699036 0.000000
[Rope1_Seg02]
42 139.999863 -0.000179 0.000000 4.056547 0.124790 -11.723218 139.999863
43 139.999863 -0.000179 0.000000 0.191139 3.913684 -5.615652 139.999863
[Rope1_Seg03]
42 139.999924 0.000060 -0.000060 5.519032 -1.103003 -10.161036 139.999924
43 139.999924 0.000060 -0.000060 -1.853218 3.779149 0.776911 139.999924
[Rope1_Seg04]
42 139.999924 -0.000060 -0.000119 3.054651 -0.415204 -4.978235 139.999924
43 139.999924 -0.000060 -0.000119 2.023527 2.666656 -7.710353 139.999924
[Rope1_Seg05]
42 139.999832 0.000119 -0.000060 -1.847558 1.413836 1.675646 139.999832
43 139.999832 0.000119 -0.000060 10.045229 -0.648670 -14.331358 139.999832
[Rope1_Seg06]
42 139.999954 0.000119 -0.000060 -0.844757 0.610988 0.803342 139.999954
43 139.999954 0.000119 -0.000060 5.121455 -1.161370 -5.240582 139.999954
[Rope1_Seg07]
42 139.999985 0.000060 0.000000 -0.181174 0.219397 0.080441 139.999985
43 139.999985 0.000060 0.000000 2.547800 -0.638515 -2.362523 139.999985
[Rope1_Seg09]
42 121.602913 0.000119 -0.000089 -89.793175 -1.359789 0.847147 121.602913
43 121.602913 0.000119 -0.000089 -89.793175 -1.359789 0.847147 121.602913
[L_mid_hand01]
42 103.859421 1.038730 8.195221 106.855484 -31.239275 -9.461397 104.187431
43 103.859421 1.038730 8.195221 106.855484 -31.239275 -9.461397 104.187431
[L_mid_hand02]
42 105.572853 -4.139662 -10.864139 -142.331345 25.752670 -28.774628 106.211075
43 105.572853 -4.139662 -10.864139 -142.331345 25.752670 -28.774628 106.211075
[L_mid_hand03]
42 104.641464 17.579376 -3.913581 -16.122810 9.734291 34.223598 106.179977
43 104.641464 17.579376 -3.913581 -16.122810 9.734291 34.223598 106.179977
[null_rope02_connect]
42 328.732849 0.000179 -0.000119 -139.106033 64.877701 -65.522079 328.732849
43 328.732849 0.000179 -0.000119 -142.184021 64.024292 -67.392799 328.732849
[Rope2_Seg01]
42 0.000127 0.000114 -0.000104 86.142281 -41.610218 -111.195381 0.000200
43 0.000126 0.000114 -0.000107 87.358612 -43.393311 -113.034088 0.000201
[Rope2_Seg02]
42 139.999741 -0.000060 -0.000119 -0.335124 10.350236 -6.622134 139.999756
43 139.999741 -0.000060 -0.000119 -0.554609 11.830270 -5.940510 139.999756
[Rope2_Seg03]
42 140.000107 0.000030 0.000000 -0.569900 8.797175 -2.914517 140.000107
43 140.000107 0.000030 0.000000 -1.023240 10.963098 -2.600900 140.000107
[Rope2_Seg04]
42 139.999802 0.000000 -0.000060 -0.679522 6.479638 -1.706255 139.999802
43 139.999802 0.000000 -0.000060 -1.695703 8.531893 -0.680348 139.999802
[Rope2_Seg05]
42 139.999985 -0.000060 0.000119 6.257228 3.202313 -11.691854 139.999985
43 139.999985 -0.000060 0.000119 6.535539 1.462319 -10.651297 139.999985
[Rope2_Seg06]
42 139.999893 -0.000030 -0.000119 13.264906 -0.052332 -16.381275 139.999893
43 139.999893 -0.000030 -0.000119 14.591157 -4.131543 -17.028984 139.999893
[Rope2_Seg07]
42 139.999893 0.000060 -0.000060 8.478148 -1.274091 -8.944461 139.999893
43 139.999893 0.000060 -0.000060 8.301559 -3.636883 -9.291115 139.999893
[Rope2_Seg09]
42 121.338966 0.000089 -0.000060 33.793236 -1.359788 -0.847141 121.338966
43 121.338966 0.000089 -0.000060 33.793236 -1.359788 -0.847141 121.338966
[R_mid_hand01]
42 104.680779 11.144459 -10.335981 -41.523792 25.424656 28.595957 105.778534
43 104.680779 11.144459 -10.335981 -41.523792 25.424656 28.595957 105.778534
[R_mid_hand02]
42 104.070427 2.443552 8.231699 72.847389 -32.746803 10.013901 104.424065
43 104.070427 2.443552 8.231699 72.847389 -32.746803 10.013901 104.424065
[R_mid_hand03]
42 106.028137 -11.221827 -5.996406 -167.901306 10.259192 -37.009720 106.788818
43 106.028137 -11.221827 -5.996406 -167.901306 10.259192 -37.009720 106.788818
[spine02]
42 129.756927 0.001550 0.000119 0.001147 -1.797837 -7.854275 129.756927
43 129.756927 0.001550 0.000119 0.001147 -1.797837 -7.854275 129.756927
[spine03]
42 79.115631 0.000000 -0.000119 1.459971 -2.848092 23.765963 79.115631
43 79.115631 0.000000 -0.000119 1.459971 -2.848092 23.765959 79.115631
[pelvis]
42 169.435242 0.051022 0.000000 -0.000005 0.000003 -4.322055 169.435257
43 169.435242 0.051022 0.000000 -0.000005 0.000003 -4.322055 169.435257
[null_rope03_connect]
42 -1.257226 -2.466202 137.391083 15.244987 -85.776825 59.423161 137.418976
43 -1.257226 -2.466202 137.391083 15.418210 -85.624802 59.562756 137.418976
[null_rope04_connect]
42 -1.259640 -2.480268 -137.844437 15.244987 -85.776825 59.423161 137.872513
43 -1.259640 -2.480268 -137.844437 15.418210 -85.624802 59.562756 137.872513
[Rope3_Seg01]
42 0.000010 0.000012 -0.000048 -131.014099 -4.679966 -72.417442 0.000051
43 0.000010 0.000011 -0.000046 -131.506134 -5.333219 -59.433678 0.000048
[Rope3_Seg02]
42 139.999924 -0.000119 0.000060 0.041094 5.524171 3.177922 139.999924
43 139.999924 -0.000119 0.000060 -0.483743 6.214277 4.295451 139.999924
[Rope3_Seg03]
42 139.999924 -0.000119 0.000119 0.434439 6.512873 3.772063 139.999924
43 139.999924 -0.000119 0.000119 0.004961 8.114594 5.780665 139.999924
[Rope3_Seg04]
42 139.999924 0.000119 0.000000 1.435995 9.576337 5.375072 139.999924
43 139.999924 0.000119 0.000000 1.175125 11.425400 8.377625 139.999924
[Rope3_Seg05]
42 139.999924 -0.000238 0.000060 3.559586 12.046226 6.425426 139.999924
43 139.999924 -0.000238 0.000060 4.608247 16.133131 12.011608 139.999924
[Rope3_Seg06]
42 139.999893 -0.000119 -0.000060 0.389955 0.409765 0.705354 139.999893
43 139.999893 -0.000119 -0.000060 2.327541 5.439984 3.287075 139.999893
[Rope3_Seg07]
42 139.999771 0.000060 -0.000119 -2.059404 -11.119976 -4.008252 139.999771
43 139.999771 0.000060 -0.000119 -0.876522 -5.970833 -4.064121 139.999771
[Rope3_Seg08]
42 139.999985 -0.000060 0.000000 -0.419902 -6.352188 -2.402348 139.999985
43 139.999985 -0.000060 0.000000 -0.178213 -4.219250 -3.045698 139.999985
[Rope3_Seg09]
42 90.185997 -0.000179 -0.000060 89.793228 -1.359877 -0.847183 90.185997
43 90.185997 -0.000179 -0.000060 89.793228 -1.359877 -0.847183 90.185997
[R_rear_hand01]
42 103.366196 -6.073594 -10.757982 -161.551193 16.666374 -30.088671 104.101845
43 103.366196 -6.073594 -10.757982 -161.551193 16.666374 -30.088671 104.101845
[R_rear_hand02]
42 100.509819 12.039542 -7.992327 -34.280552 19.289745 28.875523 101.543350
43 100.509819 12.039542 -7.992327 -34.280552 19.289745 28.875523 101.543350
[R_rear_hand03]
42 101.539970 5.215704 5.435467 83.366440 -30.933914 7.284830 101.819031
43 101.539970 5.215704 5.435467 83.366440 -30.933914 7.284830 101.819031
[Rope4_Seg01]
42 0.000010 0.000038 -0.000114 39.678257 -4.709627 -64.812714 0.000121
43 0.000010 0.000038 -0.000114 23.498201 -8.281378 -42.456154 0.000121
[Rope4_Seg02]
42 139.999985 0.000060 0.000119 6.352268 -17.249414 -19.595932 139.999985
43 139.999985 0.000060 0.000119 15.530169 -13.294149 -27.755911 139.999985
[Rope4_Seg03]
42 139.999924 0.000000 -0.000238 1.111630 -10.471889 -9.642206 139.999924
43 139.999924 0.000000 -0.000238 4.825682 -14.987605 -19.080957 139.999924
[Rope4_Seg04]
42 139.999985 0.000000 0.000119 0.076785 -6.102093 -5.219432 139.999985
43 139.999985 0.000000 0.000119 0.640486 -10.412367 -11.627833 139.999985
[Rope4_Seg05]
42 139.999802 -0.000060 -0.000119 -0.090131 -0.662073 -1.234286 139.999802
43 139.999802 -0.000060 -0.000119 -0.280238 -2.837150 -3.405487 139.999802
[Rope4_Seg06]
42 139.999924 0.000000 0.000060 0.028828 2.573498 0.769086 139.999924
43 139.999924 0.000000 0.000060 0.015983 0.239085 -0.245595 139.999924
[Rope4_Seg07]
42 139.999802 0.000000 0.000000 0.253930 6.653083 2.890067 139.999802
43 139.999802 0.000000 0.000000 0.448454 3.365367 2.741363 139.999802
[Rope4_Seg08]
42 139.999924 0.000000 0.000119 -1.411327 4.263905 1.399358 139.999924
43 139.999924 0.000000 0.000119 -1.312410 2.565723 1.857255 139.999924
[Rope4_Seg09]
42 90.185791 0.000060 0.000060 -135.617828 2.228885 0.850567 90.185791
43 90.185791 0.000060 0.000060 -135.617828 2.228885 0.850567 90.185791
[L_rear_hand01]
42 101.696655 -8.392275 -7.654577 -34.454281 -18.946800 151.655121 102.329041
43 101.696655 -8.392275 -7.654577 -34.454281 -18.946800 151.655121 102.329041
[L_rear_hand02]
42 102.726799 -1.568258 5.773216 83.407906 30.330435 172.796509 102.900848
43 102.726799 -1.568258 5.773216 83.407906 30.330435 172.796509 102.900848
[L_rear_hand03]
42 104.552910 9.721220 -10.420293 -161.379868 -16.473232 -150.512238 105.519653
43 104.552910 9.721220 -10.420293 -161.379868 -16.473232 -150.512238 105.519653
